<?xml version="1.0" encoding="UTF-8" standalone="no"?> <svg id="line" xmlns="http://www.w3.org/2000/svg" viewBox="0 0 64 64"><title>1</title><path d="M48.48828,39.14648l-9.63916,3.984a4.22684,4.22684,0,0,0-2.65088-1.8277l-6.03369-1.38085a8.575,8.575,0,0,0-7.47416-1.3008l-4.87478,2.0782a3.68678,3.68678,0,0,0-3.95916-.544l-1.94385.91114a3.6942,3.6942,0,0,0-1.77442,4.90722L15.71631,57.876a3.70682,3.70682,0,0,0,4.90675,1.77437c2.413-.948,4.73549-2.31952,3.89938-5.30865a3.00049,3.00049,0,0,1,1.22268.00791l6.729,1.70215a4.1799,4.1799,0,0,0,2.89844-.34473l7.56982-3.95019a1.00014,1.00014,0,0,0-.92484-1.77342l-7.56441,3.94724a2.1747,2.1747,0,0,1-1.498.17969L26.26563,52.419a4.9812,4.9812,0,0,0-2.55414.06835l-4.7378-10.10766,4.43793-1.89234c.41553-.10644,3.44824-.80175,5.63672,1.10938a.99522.99522,0,0,0,.43457.2207l6.27148,1.43555c3.01625.79188,1.65647,4.589-1.22711,3.872l-6.91546-1.1269a1.00039,1.00039,0,0,0-.32125,1.97461c.71476.087,7.36139,1.26508,7.89594,1.23443a4.11344,4.11344,0,0,0,4.26466-4.16218L49.252,40.99414a2.13576,2.13576,0,0,1,2.74854,1.21094,2.43622,2.43622,0,0,1-.99222,3.09861l-5.43014,2.82912a.99982.99982,0,1,0,.92382,1.77344l5.43506-2.831C56.52049,44.58749,53.50132,37.22735,48.48828,39.14648ZM22.58984,55.97363c-.288.9954-1.90115,1.353-2.8159,1.86626a1.69762,1.69762,0,0,1-2.24708-.81354L11.94873,45.124a1.70414,1.70414,0,0,1,.935-2.30425l.95757,1.78668a1.00009,1.00009,0,1,0,1.76269-.94532l-.90673-1.69189a1.69491,1.69491,0,0,1,2.25537.811l5.3648,11.44531A2.06339,2.06339,0,0,1,22.58984,55.97363Z"/><path d="M52.70947,17.17578l-3.80322-.35937q-.17284-.4673-.38721-.92774l2.438-2.94629a1.65246,1.65246,0,0,0-.10547-2.22851l-3.353-3.35254a1.64927,1.64927,0,0,0-2.23-.10645l-2.94531,2.4375c-.30615-.1416-.61572-.27148-.92773-.38672L41.03662,5.502A1.65026,1.65026,0,0,0,39.38623,4H34.64307A1.65025,1.65025,0,0,0,32.99268,5.502l-.35889,3.80371c-.312.11524-.62158.24512-.92774.38672L28.76172,7.25586a1.64609,1.64609,0,0,0-2.23.10449l-3.355,3.35449a1.6528,1.6528,0,0,0-.104,2.22852l2.4375,2.94531q-.21385.46-.38769.92774l-3.80127.35839a1.65013,1.65013,0,0,0-1.50342,1.6504v4.74316a1.65092,1.65092,0,0,0,1.502,1.65039l3.80274.3584q.17358.46728.38769.92773l-2.438,2.94629a1.64977,1.64977,0,0,0,.10546,2.22852l3.353,3.35254a1.64826,1.64826,0,0,0,2.23.10644l2.94531-2.4375c.30616.1416.61573.27149.92774.38672l.35889,3.80371a1.65024,1.65024,0,0,0,1.65039,1.502h4.74316a1.65026,1.65026,0,0,0,1.65039-1.502l.35889-3.80371c.312-.11523.62158-.24512.92773-.38672l2.94434,2.43653a1.65019,1.65019,0,0,0,2.23-.1045l3.35351-3.35254a1.65122,1.65122,0,0,0,.10547-2.23046L48.519,26.50488q.21387-.46.38721-.92773l3.80371-.3584a1.65125,1.65125,0,0,0,1.50147-1.65039V18.8252A1.64837,1.64837,0,0,0,52.70947,17.17578Zm-.498,6.08106-4.13721.39062a.99773.99773,0,0,0-.86182.70117c-.11383.95438-1.33488,1.98953-.64858,2.93162l2.65347,3.2051-2.91358,2.91406-3.20557-2.65332c-.944-.682-1.97491.52859-2.93313.64926a.99993.99993,0,0,0-.69968.86149l-.39062,4.13671H34.95459L34.564,32.25684c-.16789-1.12714-1.73156-1.0207-2.52775-1.62415a1.00147,1.00147,0,0,0-1.10506.1134l-3.20556,2.65332L24.812,30.48535l2.65332-3.20508c.6831-.94133-.53052-1.97847-.64877-2.93264a.99906.99906,0,0,0-.862-.70017l-4.13672-.39062V19.13672l4.13721-.39063c1.12693-.16748,1.01853-1.72879,1.62365-2.52726a1.00017,1.00017,0,0,0-.1134-1.10555L24.812,11.9082l2.91358-2.91406,3.20556,2.65332c.94258.68154,1.97581-.52839,2.93314-.64926a.9999.9999,0,0,0,.69967-.86148L34.95459,6h4.12012l.39062,4.13672c.16789,1.12714,1.73157,1.0207,2.52775,1.62414a.99974.99974,0,0,0,1.10506-.1134l3.20557-2.65332,2.91358,2.91406L46.564,15.11328a.99984.99984,0,0,0-.11328,1.10547c.61471.80322.47925,2.34622,1.62293,2.52743l4.13782.39152Z"/><path d="M37.01465,11.24609A9.96208,9.96208,0,0,0,27.064,21.19727c.54678,13.20026,19.35661,13.19642,19.90139-.00008A9.96209,9.96209,0,0,0,37.01465,11.24609Zm0,17.90137A7.95958,7.95958,0,0,1,29.064,21.19727c.43652-10.54833,15.46646-10.54527,15.90139.00006A7.95958,7.95958,0,0,1,37.01465,29.14746Z"/><path d="M38.01465,20.35321V17.19745a1.65385,1.65385,0,0,1,.65967,1.14825.99993.99993,0,0,0,1.98828-.21484,3.64747,3.64747,0,0,0-2.64795-3.11908,1.04,1.04,0,1,0-2,.00258,3.65686,3.65686,0,0,0,.00009,7.0269l-.0001,3.15057a1.65813,1.65813,0,0,1-.66455-1.2016,1.00017,1.00017,0,0,0-1.99512.14454,3.67148,3.67148,0,0,0,2.65967,3.24389,1.0408,1.0408,0,1,0,2,.00054A3.65626,3.65626,0,0,0,38.01465,20.35321Zm-2.66944-1.82587a1.66212,1.66212,0,0,1,.66944-1.32788v2.65668A1.66316,1.66316,0,0,1,35.34521,18.52734Zm2.66944,6.66675V22.53833A1.67029,1.67029,0,0,1,38.01465,25.19409Z"/></svg>