<?xml version="1.0" encoding="UTF-8" standalone="no"?> <svg id="Layer_1" data-name="Layer 1" xmlns="http://www.w3.org/2000/svg" viewBox="0 0 100 100"><defs><style>.cls-1{fill:#1d1d1b;}</style></defs><path class="cls-1" d="M77.39,55.07H58.29V43.49a10,10,0,0,0-10-10,2,2,0,0,0-2,2V42a15.39,15.39,0,0,1-5,11.37l-4.73,4.3V56.27a6.07,6.07,0,0,0-6.07-6.07H22.6a6.08,6.08,0,0,0-6.08,6.07V90.93A6.08,6.08,0,0,0,22.6,97h7.88a6.06,6.06,0,0,0,4.88-2.47H72a4.31,4.31,0,0,0,4.31-4.31V86.71a4.3,4.3,0,0,0-.6-2.16A4.31,4.31,0,0,0,77.54,81V77.82a4.14,4.14,0,0,0-.24-1.41,4.32,4.32,0,0,0,4-4.3V68.6a4.24,4.24,0,0,0-.61-2.17,4.67,4.67,0,0,0,2.76-4.08V59.92C83.48,57.2,80.8,55.07,77.39,55.07Zm-46.91,39H22.6a3.17,3.17,0,0,1-3.17-3.16V56.27a3.17,3.17,0,0,1,3.17-3.16h7.88a3.17,3.17,0,0,1,3.17,3.16V90.93A3.17,3.17,0,0,1,30.48,94.09Zm47.94-22a1.4,1.4,0,0,1-1.4,1.4H68a1.46,1.46,0,0,0,0,2.91h5.21a1.4,1.4,0,0,1,1.4,1.4V81a1.39,1.39,0,0,1-1.4,1.4,1.45,1.45,0,0,0-.46.09A4.27,4.27,0,0,0,72,82.4H64.77a1.46,1.46,0,0,0,0,2.91H72a1.4,1.4,0,0,1,1.4,1.4v3.51a1.4,1.4,0,0,1-1.4,1.4H36.51a5.32,5.32,0,0,0,0-.69V61.61l6.69-6.08a18.31,18.31,0,0,0,6-13.52V36.47a7.08,7.08,0,0,1,6.16,7V56a2,2,0,0,0,1.7,2,1.43,1.43,0,0,0,.29,0h20c1.87,0,3.18,1,3.18,1.94v2.43c0,.92-1.31,1.94-3.18,1.94H71a1.46,1.46,0,0,0,0,2.91h6a1.4,1.4,0,0,1,1.4,1.4Z"/><path class="cls-1" d="M26.68,48.37a1.45,1.45,0,0,0,2.1-1.55l-1.43-8L33.18,33a1.46,1.46,0,0,0-.82-2.48l-8.1-1.13L20.6,22.1a1.46,1.46,0,0,0-1.3-.8h0a1.45,1.45,0,0,0-1.3.82l-3.58,7.35L6.32,30.69a1.46,1.46,0,0,0-.79,2.49l5.89,5.68-1.34,8.07a1.44,1.44,0,0,0,.59,1.41,1.47,1.47,0,0,0,.85.28,1.49,1.49,0,0,0,.68-.17l7.22-3.85Zm-7.95-6.7-5.3,2.83,1-5.92A1.48,1.48,0,0,0,14,37.29L9.67,33.13l5.93-.9a1.46,1.46,0,0,0,1.09-.8L19.32,26,22,31.4a1.45,1.45,0,0,0,1.1.79L29,33l-4.27,4.21a1.44,1.44,0,0,0-.41,1.29l1.05,5.91-5.33-2.76A1.46,1.46,0,0,0,18.73,41.67Z"/><path class="cls-1" d="M94.84,31.53a1.47,1.47,0,0,0-1.18-1l-8.1-1.13L81.9,22.1a1.46,1.46,0,0,0-1.3-.8h0a1.45,1.45,0,0,0-1.3.82l-3.58,7.35-8.09,1.22a1.46,1.46,0,0,0-.79,2.49l5.89,5.68-1.34,8.07A1.44,1.44,0,0,0,72,48.34a1.47,1.47,0,0,0,.85.28,1.49,1.49,0,0,0,.68-.17l7.22-3.85L88,48.37a1.45,1.45,0,0,0,2.1-1.55l-1.43-8L94.48,33A1.48,1.48,0,0,0,94.84,31.53Zm-8.77,5.7a1.44,1.44,0,0,0-.41,1.29l1,5.91-5.32-2.76a1.46,1.46,0,0,0-1.35,0l-5.3,2.83,1-5.92a1.48,1.48,0,0,0-.42-1.29L71,33.13l5.93-.9a1.46,1.46,0,0,0,1.09-.8L80.62,26,83.3,31.4a1.45,1.45,0,0,0,1.1.79l5.94.83Z"/><path class="cls-1" d="M42.07,20.56l-1.34,8.07A1.44,1.44,0,0,0,41.32,30a1.4,1.4,0,0,0,.85.28,1.49,1.49,0,0,0,.68-.17l7.22-3.85,7.26,3.77A1.46,1.46,0,0,0,58.86,30a1.44,1.44,0,0,0,.57-1.43l-1.43-8,5.83-5.74A1.46,1.46,0,0,0,63,12.25l-8.1-1.13L51.25,3.81A1.43,1.43,0,0,0,49.94,3a1.47,1.47,0,0,0-1.3.82l-3.58,7.36L37,12.4a1.45,1.45,0,0,0-.79,2.48Zm4.18-6.62a1.49,1.49,0,0,0,1.09-.81L50,7.74l2.68,5.37a1.47,1.47,0,0,0,1.1.78l5.94.83-4.27,4.21A1.44,1.44,0,0,0,55,20.22l1.05,5.91-5.33-2.76a1.43,1.43,0,0,0-1.35,0l-5.3,2.82,1-5.92A1.48,1.48,0,0,0,44.64,19l-4.32-4.16Z"/></svg>