<svg xmlns="http://www.w3.org/2000/svg" viewBox="0 0 64 64"><g id="Layer_46" data-name="Layer 46"><path d="M35.19,24.94a1,1,0,0,0,.71-.29l7.79-7.8a1.07,1.07,0,0,0,.22-1.09A7.83,7.83,0,0,1,50.54,5.1L47.67,8a1,1,0,0,0-.26,1l1.47,5.48a1,1,0,0,0,.7.7l5.48,1.47a1.15,1.15,0,0,0,.26,0,1,1,0,0,0,.71-.29l2.87-2.87a7.83,7.83,0,0,1-10.66,6.63h0a1,1,0,0,0-1.09.22l-7.79,7.8a1,1,0,0,0,1.42,1.42l7.34-7.36C55,24.61,62.32,18.09,60.75,11a1,1,0,0,0-.88-.79,1.1,1.1,0,0,0-.81.28l-4,4-4.36-1.17L49.49,9l4-4a1.06,1.06,0,0,0,.27-.81A1,1,0,0,0,53,3.25C45.86,1.71,39.45,9,41.84,15.86l-7.36,7.37A1,1,0,0,0,35.19,24.94Z"/><path d="M28.11,39.36,20.77,46.7a9.32,9.32,0,0,0-3.47-3.47l7.35-7.33a1,1,0,0,0-1.42-1.42l-7.89,7.89C6,39.56-1.06,51.09,5.87,58.13S24.48,58,21.64,48.66l7.89-7.88A1,1,0,0,0,28.11,39.36ZM17.86,56.71C10.61,63.46.54,53.39,7.29,46.14A7.47,7.47,0,0,1,17.86,56.71Z"/><path d="M14.38,46.61a1,1,0,0,0-1-.26L9.3,47.45a1,1,0,0,0-.71.71l-1.1,4.11a1,1,0,0,0,.26,1l3,3a1,1,0,0,0,1,.26l4.11-1.1a1,1,0,0,0,.71-.71l1.1-4.11a1,1,0,0,0-.26-1Zm.39,7-3,.81-2.2-2.2.81-3,3-.8,2.2,2.2Z"/><path d="M60.78,53.31c1.66-7.05-5.56-13.48-12.36-11.1L21.79,15.58c2.35-6.79-4-13.91-11-12.4a1,1,0,0,0-.79.87,1,1,0,0,0,.28.82l4,4L13.1,13.1,8.83,14.24l-4-4A1.1,1.1,0,0,0,4.06,10a1,1,0,0,0-.88.79c-1.55,7,5.7,13.41,12.42,11L42.21,48.42c-2.36,6.79,4,13.91,11,12.4A1,1,0,0,0,54,60a1,1,0,0,0-.28-.82l-4-4L50.9,50.9l4.27-1.14,4,4a1.29,1.29,0,0,0,.71.3h0A1,1,0,0,0,60.78,53.31Zm-5.57-5.63-5.38,1.44a1,1,0,0,0-.71.71l-1.44,5.38a1,1,0,0,0,.26,1L50.73,59a7.68,7.68,0,0,1-6.46-10.44.83.83,0,0,0,0-.56.89.89,0,0,0-.26-.53L16.57,20h0a1.07,1.07,0,0,0-1.09-.22A7.67,7.67,0,0,1,5,13.27l2.78,2.79a1,1,0,0,0,.71.29,1.15,1.15,0,0,0,.26,0l5.38-1.44a1,1,0,0,0,.71-.71l1.44-5.38a1,1,0,0,0-.26-1L13.27,5a7.68,7.68,0,0,1,6.46,10.44,1,1,0,0,0,0,.76c.16.5,27.41,27.41,27.69,27.81a1,1,0,0,0,.55.26.91.91,0,0,0,.54,0A7.67,7.67,0,0,1,59,50.73l-2.78-2.79A1,1,0,0,0,55.21,47.68Z"/></g></svg>