<?xml version="1.0" encoding="UTF-8"?>
<!DOCTYPE svg PUBLIC "-//W3C//DTD SVG 1.1//EN" "http://www.w3.org/Graphics/SVG/1.1/DTD/svg11.dtd">
<!-- Creator: CorelDRAW -->
<svg xmlns="http://www.w3.org/2000/svg" xml:space="preserve" width="1.70666in" height="1.70666in" version="1.1" style="shape-rendering:geometricPrecision; text-rendering:geometricPrecision; image-rendering:optimizeQuality; fill-rule:evenodd; clip-rule:evenodd"
viewBox="0 0 1706.66 1706.66"
 xmlns:xlink="http://www.w3.org/1999/xlink"
 xmlns:xodm="http://www.corel.com/coreldraw/odm/2003">
 <defs>
  <style type="text/css">
   <![CDATA[
    .fil0 {fill:black}
   ]]>
  </style>
 </defs>
 <g id="Layer_x0020_1">
  <metadata id="CorelCorpID_0Corel-Layer"/>
  <path class="fil0" d="M1124.37 833.75c-22.81,0 -98.96,-84.03 -271.11,-84.03 -93.33,0 -183.05,27.92 -259.72,80.56 -7.64,5.28 -17.92,4.58 -24.72,-1.67l-213.33 -192.64c-4.17,-3.75 -6.67,-9.17 -6.67,-14.86l-0 -563.33c0,-31.81 25.83,-57.78 57.78,-57.78l893.46 0c31.81,0 57.78,25.83 57.78,57.78l0 563.47c0,5.69 -2.36,11.11 -6.67,14.86l-213.33 192.5c-3.75,3.33 -8.61,5.14 -13.47,5.14zm-735.41 -221.53l195.28 176.25c163.52,-105.24 374.81,-105.25 538.33,0l195.28 -176.25 0.01 -554.44c0,-9.72 -7.92,-17.78 -17.78,-17.78l-893.33 0c-9.72,0 -17.78,7.92 -17.78,17.78l0 554.44zm948.89 8.89l0 0z"/>
  <path class="fil0" d="M1337.84 552.78l-968.89 0c-11.11,0 -20,-8.89 -20,-20l0 -377.22c0,-11.11 8.89,-20 20,-20l968.88 0c10.97,0 20,8.89 20,20l0 377.22c0,10.97 -8.89,20 -20,20zm-948.89 -40l928.89 0 0 -337.22 -928.89 0 0 337.22z"/>
  <path class="fil0" d="M853.4 1706.66c-274.86,0 -498.61,-223.61 -498.61,-498.61 0,-275 223.61,-498.61 498.61,-498.61 274.86,0 498.61,223.61 498.61,498.61 0,275 -223.75,498.61 -498.61,498.61zm0 -957.07c-252.91,0 -458.61,205.69 -458.61,458.61 0,252.78 205.69,458.47 458.61,458.47 252.78,0 458.61,-205.69 458.61,-458.47 0,-252.92 -205.83,-458.61 -458.61,-458.61z"/>
  <path class="fil0" d="M1041.87 1518.05c-4.17,0 -8.33,-1.25 -11.81,-3.89l-176.67 -128.89 -176.66 128.89c-15.51,11.4 -36.74,-4.2 -30.69,-22.36l67.92 -207.78 -177.08 -128.19c-15.83,-11.47 -7.43,-36.27 11.67,-36.25l218.61 0.42 67.22 -208.06c5.91,-18.34 32.13,-18.52 38.05,0l67.22 208.06 218.61 -0.42c19.26,-0.02 27.4,25 11.67,36.25l-177.08 128.19 67.92 207.78c4.18,12.88 -5.63,26.25 -18.89,26.25zm-188.47 -177.36c4.17,0 8.33,1.25 11.81,3.89l138.33 100.97 -53.19 -162.78c-2.64,-8.19 0.28,-17.36 7.36,-22.36l138.75 -100.42 -171.39 0.14c-8.61,0 -16.39,-5.56 -19.03,-13.89l-52.64 -163.06 -52.63 163.06c-2.64,8.19 -10.42,13.89 -19.03,13.89l-171.39 -0.41 138.75 100.42c7.08,5.14 10,14.17 7.22,22.36l-53.19 162.78 138.33 -100.97c3.61,-2.36 7.78,-3.61 11.94,-3.61z"/>
  <path class="fil0" d="M491.6 466.67c-11.11,0 -20,-8.89 -20,-20l0 -205.14c0,-26.36 40,-26.36 40,0l0 205.14c0,11.11 -9.03,20 -20,20z"/>
  <path class="fil0" d="M612.15 466.67c-11.11,0 -20,-8.89 -20,-20l0 -205.14c0,-26.36 40,-26.36 40,0l0 205.14c0,11.11 -8.89,20 -20,20z"/>
  <path class="fil0" d="M732.85 466.67c-11.11,0 -20,-8.89 -20,-20l0 -205.14c0,-26.36 40,-26.36 40,0l0 205.14c0,11.11 -9.03,20 -20,20z"/>
  <path class="fil0" d="M853.4 466.67c-11.11,0 -20,-8.89 -20,-20l0 -205.14c0,-26.36 40,-26.36 40,0l0 205.14c0,11.11 -8.89,20 -20,20z"/>
  <path class="fil0" d="M973.95 466.67c-10.97,0 -20,-8.89 -20,-20l0 -205.14c0,-26.33 40,-26.33 40,0l0 205.14c0,11.11 -8.89,20 -20,20z"/>
  <path class="fil0" d="M1094.65 466.67c-10.97,0 -20,-8.89 -20,-20l0 -205.14c0,-26.33 40,-26.33 40,0l0 205.14c0,11.11 -9.03,20 -20,20z"/>
  <path class="fil0" d="M1215.2 466.67c-10.97,0 -20,-8.89 -20,-20l0 -205.14c0,-26.33 40,-26.33 40,0l0 205.14c0,11.11 -8.89,20 -20,20z"/>
 </g>
</svg>
