<?xml version="1.0" encoding="UTF-8" standalone="no"?> <svg id="Layer_1" data-name="Layer 1" xmlns="http://www.w3.org/2000/svg" viewBox="0 0 64 64"><path d="M32,1A26.03,26.03,0,0,0,6,27a25.734,25.734,0,0,0,5.066,15.4l1.608-1.188A23.719,23.719,0,0,1,8.039,28H17.7a44.071,44.071,0,0,0,1.677,11.413l1.918-.566A42.054,42.054,0,0,1,19.7,28H31v9h2V28H44.3A42.054,42.054,0,0,1,42.7,38.847l1.918.566A44.071,44.071,0,0,0,46.3,28h9.665a23.719,23.719,0,0,1-4.635,13.216L52.934,42.4A25.734,25.734,0,0,0,58,27,26.03,26.03,0,0,0,32,1ZM17.683,26H8.025a23.86,23.86,0,0,1,4.16-12.523,42.459,42.459,0,0,0,6.959,1.861A44.455,44.455,0,0,0,17.683,26ZM13.437,11.806A24.069,24.069,0,0,1,25.246,3.974a22.949,22.949,0,0,0-5.527,9.438A42.161,42.161,0,0,1,13.437,11.806ZM31,26H19.683a42.424,42.424,0,0,1,1.451-10.33A72,72,0,0,0,31,16.439Zm0-11.561a70.418,70.418,0,0,1-9.269-.7C23.768,7.779,27.135,3.693,31,3.086ZM33,3.086c3.866.607,7.234,4.7,9.271,10.655a71.482,71.482,0,0,1-9.271.7ZM33,26V16.44a73.15,73.15,0,0,0,9.867-.766A42.454,42.454,0,0,1,44.317,26ZM44.281,13.411a22.952,22.952,0,0,0-5.527-9.437A24.06,24.06,0,0,1,50.561,11.8,41.284,41.284,0,0,1,44.281,13.411ZM46.317,26a44.42,44.42,0,0,0-1.462-10.664,41.8,41.8,0,0,0,6.959-1.86A23.852,23.852,0,0,1,55.975,26Z"/><path d="M50,61h7a1,1,0,0,0,1-1V54.4a3.4,3.4,0,0,0-2.662-3.314,3.5,3.5,0,1,0-4.676,0,3.369,3.369,0,0,0-1.361.66,3.992,3.992,0,0,0-2.751-1.69,4,4,0,1,0-5.1,0,3.96,3.96,0,0,0-1.653.611A4.994,4.994,0,0,0,35,47h-.206a4.5,4.5,0,1,0-5.588,0H29a4.994,4.994,0,0,0-4.8,3.667,3.96,3.96,0,0,0-1.653-.611,4,4,0,1,0-5.1,0,3.992,3.992,0,0,0-2.751,1.69,3.369,3.369,0,0,0-1.361-.66,3.5,3.5,0,1,0-4.676,0A3.4,3.4,0,0,0,6,54.4V60a1,1,0,0,0,1,1h7a1,1,0,0,0,1,1h9a1,1,0,0,0,1,1H39a1,1,0,0,0,1-1h9A1,1,0,0,0,50,61Zm3-14a1.5,1.5,0,1,1-1.5,1.5A1.5,1.5,0,0,1,53,47Zm-3,7.4A1.4,1.4,0,0,1,51.4,53h3.2A1.4,1.4,0,0,1,56,54.4V59H50ZM11,47a1.5,1.5,0,1,1-1.5,1.5A1.5,1.5,0,0,1,11,47Zm3,12H8V54.4A1.4,1.4,0,0,1,9.4,53h3.2A1.4,1.4,0,0,1,14,54.4Zm6-14a2,2,0,1,1-2,2A2,2,0,0,1,20,45Zm4,15H16V54a2,2,0,0,1,2-2h4a2,2,0,0,1,2,2Zm8-19a2.5,2.5,0,1,1-2.5,2.5A2.5,2.5,0,0,1,32,41Zm6,20H26V52a3,3,0,0,1,3-3h6a3,3,0,0,1,3,3Zm6-16a2,2,0,1,1-2,2A2,2,0,0,1,44,45Zm4,15H40V54a2,2,0,0,1,2-2h4a2,2,0,0,1,2,2Z"/></svg>