<?xml version="1.0" encoding="UTF-8" standalone="no"?> <svg xmlns="http://www.w3.org/2000/svg" viewBox="0 0 64 64"><g id="Layer_2" data-name="Layer 2"><path d="M30,1a6,6,0,1,0,6,6A6,6,0,0,0,30,1Zm0,10a4,4,0,1,1,4-4A4,4,0,0,1,30,11Z"/><path d="M62.57,54.18l-10-7a1,1,0,0,0-1-.07A1,1,0,0,0,51,48v3H37V24.63l5.18,5.83A1,1,0,0,0,42,31v2H40a1,1,0,0,0-1,1v7a1,1,0,0,0,1,1H52a1,1,0,0,0,1-1V34a1,1,0,0,0-1-1H50V31a1,1,0,0,0-1-1h-.47L39,16.17A5,5,0,0,0,34.9,14H24.66a5,5,0,0,0-3.54,1.46l-6.41,6.42a3,3,0,0,0,0,4.24l6.56,6.56a2.7,2.7,0,0,0,1.73.79V51H12v2H52a1,1,0,0,0,1-1V49.92L60.26,55,53,60.08V58a1,1,0,0,0-1-1H15v2H51v3a1,1,0,0,0,.54.89A1,1,0,0,0,52,63a1,1,0,0,0,.57-.18l10-7a1,1,0,0,0,0-1.64ZM51,40H41V36.85A10.18,10.18,0,0,0,46,38a10.18,10.18,0,0,0,5-1.15Zm-.79-5A8.05,8.05,0,0,1,46,36a8.05,8.05,0,0,1-4.21-1ZM48,33H44V32h4ZM29.87,16h.26L31,21.76,30,23.2l-1-1.44Zm-.74,35L30,44.06,30.87,51ZM35,51H32.88L31,35.88a1,1,0,0,0-2,0L27.12,51H25V33H35Zm0-20H26a2.76,2.76,0,0,0-.8-2.23L25,28.59V20H23v1.32l-4.37,1.75a1,1,0,0,0-.34,1.64l5.48,5.47a.79.79,0,0,1,.22.62.74.74,0,0,1-.34.56.76.76,0,0,1-1-.09l-6.56-6.56a1,1,0,0,1,0-1.42l6.42-6.41A3,3,0,0,1,24.66,16h3.19L27,21.86a1,1,0,0,0,.16.69l2,3a1,1,0,0,0,1.66,0l2-3a1,1,0,0,0,.16-.69L32.15,16H34.9a3,3,0,0,1,2.47,1.3L46.1,30H44.45L37,21.62V20H35ZM23,23.48v3.11l-2.22-2.22Z"/><path d="M4,60a3,3,0,0,0,3,3H9V61H7a1,1,0,0,1,0-2h6V57H7A3,3,0,0,0,4,60Z"/><path d="M1,50a3,3,0,0,0,3,3h6V51H4a1,1,0,0,1,0-2H6V47H4A3,3,0,0,0,1,50Z"/><rect x="1" y="54" width="4" height="2"/><rect x="7" y="54" width="4" height="2"/><rect x="13" y="54" width="4" height="2"/><rect x="19" y="54" width="4" height="2"/><rect x="25" y="54" width="4" height="2"/><rect x="31" y="54" width="4" height="2"/><rect x="37" y="54" width="4" height="2"/><rect x="43" y="54" width="4" height="2"/><rect x="49" y="54" width="4" height="2"/></g></svg>