<?xml version="1.0" encoding="UTF-8" standalone="no"?> <svg xmlns="http://www.w3.org/2000/svg" viewBox="0 0 64 64"><g id="line"><path d="M24.95,32.293a3,3,0,0,1-4.243,0,1,1,0,0,0-1.414,1.414,5.006,5.006,0,0,0,7.071,0,1,1,0,0,0-1.414-1.414Z"/><path d="M49.631,13.293A1,1,0,0,0,48.924,13h0a1,1,0,0,0-.709.3l-7.924,8a1,1,0,0,0,0,1.411l.614.614-1.635,1.634H36.615a10.6,10.6,0,0,0-4.734,1,10.608,10.608,0,0,0-4.5-1H24.728l-1.635-1.634.614-.614a1,1,0,0,0,0-1.413l-7.979-8A1,1,0,0,0,15.021,13h0a1,1,0,0,0-.708.293L2.293,25.313a1,1,0,0,0,0,1.416l8,7.979a1,1,0,0,0,1.413,0l.78-.78,1,1a11.4,11.4,0,0,0,3.15,5.976l2.641,2.788a.993.993,0,0,0,.328.227,2.966,2.966,0,0,0-.04.433,3.008,3.008,0,0,0,2.843,2.979,3.005,3.005,0,0,0,2.83,2.829A3.009,3.009,0,0,0,28.215,53h.012a2.956,2.956,0,0,0,2.105-.871l.944-.944A3.018,3.018,0,0,0,34.022,53h.012a2.958,2.958,0,0,0,2.106-.871L47.349,40.92a11.429,11.429,0,0,0,3.168-6l1-1,.78.78A1,1,0,0,0,53,35h0a1,1,0,0,0,.708-.3l7.944-7.979a1,1,0,0,0,0-1.413ZM11,32.587,4.415,26.02l10.605-10.6L21.587,22Zm7.066,6.919A9.456,9.456,0,0,1,15.4,34.283a1,1,0,0,0-.28-.55l-1.22-1.22,7.778-7.778,1.927,1.927a1,1,0,0,0,.707.293h3.072a8.636,8.636,0,0,1,6.157,2.569L37.715,33.3a.97.97,0,0,1,.285.694A1.011,1.011,0,0,1,37,35h0a.988.988,0,0,1-.709-.3l-3.577-3.406h0l-.015-.015a.967.967,0,0,0-.144-.09,1.075,1.075,0,0,0-.183-.115.986.986,0,0,0-.162-.031A1.052,1.052,0,0,0,31.986,31a1.033,1.033,0,0,0-.164.032,1,1,0,0,0-.21.046,1.11,1.11,0,0,0-.15.1.974.974,0,0,0-.172.115L20.542,42.119Zm30.814-5.773a1,1,0,0,0-.28.55,9.456,9.456,0,0,1-2.664,5.223L34.726,50.715a.978.978,0,0,1-.692.285h0a1.011,1.011,0,0,1-1-1,.963.963,0,0,1,.285-.694l.652-.652a.981.981,0,0,0,.23-.382l2.514-2.514a1,1,0,1,0-1.414-1.414l-6.375,6.375a.977.977,0,0,1-.691.285h0a1.01,1.01,0,0,1-1-1,.966.966,0,0,1,.284-.7l6.376-6.375a1,1,0,0,0-1.414-1.414l-6.376,6.375a.978.978,0,0,1-.692.285h0a1.011,1.011,0,0,1-1-1,.967.967,0,0,1,.285-.7L31.05,40.1a1,1,0,0,0-1.414-1.414l-6.375,6.376a.971.971,0,0,1-.691.284h0a1.01,1.01,0,0,1-1-1,.966.966,0,0,1,.288-.7L32.02,33.4l2.867,2.729A2.955,2.955,0,0,0,36.993,37h.012A3.019,3.019,0,0,0,40,34a2.981,2.981,0,0,0-.907-2.151L34.92,28.076a10.8,10.8,0,0,0-.9-.794,9.866,9.866,0,0,1,2.591-.327h3.072a1,1,0,0,0,.707-.293l1.927-1.927L50.1,32.513ZM53,32.584,42.411,22l6.516-6.579,10.6,10.6Z"/></g></svg>